<svg xmlns="http://www.w3.org/2000/svg" width="1920" height="1080"><path d="M972,576L865,485L790,639Z" fill="#71b0d7" stroke="#71b0d7" stroke-width="1.51"/><path d="M790,639L859,755L972,576Z" fill="#65a7d1" stroke="#65a7d1" stroke-width="1.51"/><path d="M865,485L717,467L790,639Z" fill="#80b9db" stroke="#80b9db" stroke-width="1.51"/><path d="M865,485L789,383L717,467Z" fill="#90c2de" stroke="#90c2de" stroke-width="1.51"/><path d="M879,325L789,383L865,485Z" fill="#93c3df" stroke="#93c3df" stroke-width="1.51"/><path d="M859,755L1087,752L972,576Z" fill="#559ccd" stroke="#559ccd" stroke-width="1.51"/><path d="M790,639L789,808L859,755Z" fill="#65a0ce" stroke="#65a0ce" stroke-width="1.51"/><path d="M859,755L789,808L898,804Z" fill="#5c98ca" stroke="#5c98ca" stroke-width="1.51"/><path d="M647,832L789,808L790,639Z" fill="#6ba1ce" stroke="#6ba1ce" stroke-width="1.51"/><path d="M1064,361L879,325L865,485Z" fill="#8abedd" stroke="#8abedd" stroke-width="1.51"/><path d="M898,804L1087,752L859,755Z" fill="#5195c9" stroke="#5195c9" stroke-width="1.51"/><path d="M972,576L1064,361L865,485Z" fill="#78b4d9" stroke="#78b4d9" stroke-width="1.51"/><path d="M717,467L606,638L790,639Z" fill="#82b8da" stroke="#82b8da" stroke-width="1.51"/><path d="M1162,637L1146,530L972,576Z" fill="#5ba1cf" stroke="#5ba1cf" stroke-width="1.51"/><path d="M1146,530L1064,361L972,576Z" fill="#6eadd5" stroke="#6eadd5" stroke-width="1.51"/><path d="M1087,752L1162,637L972,576Z" fill="#519bcb" stroke="#519bcb" stroke-width="1.51"/><path d="M898,804L1043,850L1087,752Z" fill="#488dc5" stroke="#488dc5" stroke-width="1.51"/><path d="M1087,752L1206,815L1162,637Z" fill="#418dc4" stroke="#418dc4" stroke-width="1.51"/><path d="M1089,990L1043,850L831,1056Z" fill="#417ab4" stroke="#417ab4" stroke-width="1.51"/><path d="M606,638L647,832L790,639Z" fill="#76abd3" stroke="#76abd3" stroke-width="1.51"/><path d="M789,808L831,1056L898,804Z" fill="#578bc1" stroke="#578bc1" stroke-width="1.51"/><path d="M1279,395L1184,428L1369,530Z" fill="#68a3cf" stroke="#68a3cf" stroke-width="1.51"/><path d="M1146,530L1184,428L1064,361Z" fill="#73aed5" stroke="#73aed5" stroke-width="1.51"/><path d="M717,467L507,562L606,638Z" fill="#8ebede" stroke="#8ebede" stroke-width="1.51"/><path d="M606,638L385,678L647,832Z" fill="#81aed6" stroke="#81aed6" stroke-width="1.51"/><path d="M541,409L507,562L717,467Z" fill="#9cc6e2" stroke="#9cc6e2" stroke-width="1.51"/><path d="M541,409L717,467L789,383Z" fill="#9fcae2" stroke="#9fcae2" stroke-width="1.51"/><path d="M879,325L851,214L789,383Z" fill="#a1c9e4" stroke="#a1c9e4" stroke-width="1.51"/><path d="M1001,178L851,214L879,325Z" fill="#a3c9e4" stroke="#a3c9e4" stroke-width="1.51"/><path d="M1001,178L879,325L1064,361Z" fill="#97c2e1" stroke="#97c2e1" stroke-width="1.51"/><path d="M685,190L541,409L789,383Z" fill="#aed0e6" stroke="#aed0e6" stroke-width="1.51"/><path d="M647,832L697,948L789,808Z" fill="#6896c7" stroke="#6896c7" stroke-width="1.51"/><path d="M558,1003L697,948L647,832Z" fill="#6b90c2" stroke="#6b90c2" stroke-width="1.51"/><path d="M1043,850L1206,815L1087,752Z" fill="#3d87c1" stroke="#3d87c1" stroke-width="1.51"/><path d="M1369,530L1184,428L1146,530Z" fill="#60a2cf" stroke="#60a2cf" stroke-width="1.51"/><path d="M1164,934L1206,815L1043,850Z" fill="#387dba" stroke="#387dba" stroke-width="1.51"/><path d="M1237,254L1001,178L1064,361Z" fill="#92bcde" stroke="#92bcde" stroke-width="1.51"/><path d="M851,214L685,190L789,383Z" fill="#aed0e7" stroke="#aed0e7" stroke-width="1.51"/><path d="M791,86L685,190L851,214Z" fill="#b7d5e9" stroke="#b7d5e9" stroke-width="1.51"/><path d="M1184,428L1237,254L1064,361Z" fill="#80b3d8" stroke="#80b3d8" stroke-width="1.51"/><path d="M1369,530L1146,530L1162,637Z" fill="#539bcc" stroke="#539bcc" stroke-width="1.51"/><path d="M507,562L385,678L606,638Z" fill="#8fbadd" stroke="#8fbadd" stroke-width="1.51"/><path d="M541,409L422,526L507,562Z" fill="#a1c8e3" stroke="#a1c8e3" stroke-width="1.51"/><path d="M419,339L422,526L541,409Z" fill="#b0d1e7" stroke="#b0d1e7" stroke-width="1.51"/><path d="M1089,990L1164,934L1043,850Z" fill="#3979b6" stroke="#3979b6" stroke-width="1.51"/><path d="M831,1056L1043,850L898,804Z" fill="#4c85be" stroke="#4c85be" stroke-width="1.51"/><path d="M697,948L831,1056L789,808Z" fill="#5d89be" stroke="#5d89be" stroke-width="1.51"/><path d="M1279,395L1237,254L1184,428Z" fill="#7baed5" stroke="#7baed5" stroke-width="1.51"/><path d="M422,526L385,678L507,562Z" fill="#97c1e0" stroke="#97c1e0" stroke-width="1.51"/><path d="M1369,661L1162,637L1206,815Z" fill="#3d8bc2" stroke="#3d8bc2" stroke-width="1.51"/><path d="M1369,661L1369,530L1162,637Z" fill="#4891c7" stroke="#4891c7" stroke-width="1.51"/><path d="M1279,395L1325,239L1237,254Z" fill="#82aed6" stroke="#82aed6" stroke-width="1.51"/><path d="M685,190L513,238L541,409Z" fill="#bdd7eb" stroke="#bdd7eb" stroke-width="1.51"/><path d="M1418,891L1369,661L1206,815Z" fill="#2d7bbb" stroke="#2d7bbb" stroke-width="1.51"/><path d="M957,85L791,86L851,214Z" fill="#b1d2e9" stroke="#b1d2e9" stroke-width="1.51"/><path d="M685,190L607,136L513,238Z" fill="#c4dbee" stroke="#c4dbee" stroke-width="1.51"/><path d="M957,85L851,214L1001,178Z" fill="#a8cce7" stroke="#a8cce7" stroke-width="1.51"/><path d="M1015,68L957,85L1001,178Z" fill="#a8cbe6" stroke="#a8cbe6" stroke-width="1.51"/><path d="M513,238L419,339L541,409Z" fill="#bdd7eb" stroke="#bdd7eb" stroke-width="1.51"/><path d="M422,526L332,668L385,678Z" fill="#96bedf" stroke="#96bedf" stroke-width="1.51"/><path d="M791,86L607,136L685,190Z" fill="#c0dbec" stroke="#c0dbec" stroke-width="1.51"/><path d="M353,294L312,400L419,339Z" fill="#c1daed" stroke="#c1daed" stroke-width="1.51"/><path d="M397,910L558,1003L647,832Z" fill="#7595c7" stroke="#7595c7" stroke-width="1.51"/><path d="M697,948L713,1100L831,1056Z" fill="#5a7dad" stroke="#5a7dad" stroke-width="1.51"/><path d="M714,-97L647,-28L791,86Z" fill="#cbe2f0" stroke="#cbe2f0" stroke-width="1.51"/><path d="M1196,144L1015,68L1001,178Z" fill="#a0c6e3" stroke="#a0c6e3" stroke-width="1.51"/><path d="M558,1003L713,1100L697,948Z" fill="#6483b2" stroke="#6483b2" stroke-width="1.51"/><path d="M831,1056L845,1155L1089,990Z" fill="#446fa3" stroke="#446fa3" stroke-width="1.51"/><path d="M1325,239L1196,144L1237,254Z" fill="#8db5da" stroke="#8db5da" stroke-width="1.51"/><path d="M1237,254L1196,144L1001,178Z" fill="#96bddf" stroke="#96bddf" stroke-width="1.51"/><path d="M385,678L397,910L647,832Z" fill="#80a5d2" stroke="#80a5d2" stroke-width="1.51"/><path d="M329,494L332,668L422,526Z" fill="#9fc6e3" stroke="#9fc6e3" stroke-width="1.51"/><path d="M419,339L329,494L422,526Z" fill="#afd0e7" stroke="#afd0e7" stroke-width="1.51"/><path d="M1369,530L1500,402L1279,395Z" fill="#659dcc" stroke="#659dcc" stroke-width="1.51"/><path d="M1369,661L1437,548L1369,530Z" fill="#488fc5" stroke="#488fc5" stroke-width="1.51"/><path d="M1500,402L1325,239L1279,395Z" fill="#77a5d1" stroke="#77a5d1" stroke-width="1.51"/><path d="M713,1100L845,1155L831,1056Z" fill="#5274a3" stroke="#5274a3" stroke-width="1.51"/><path d="M558,1003L518,1215L713,1100Z" fill="#657ca8" stroke="#657ca8" stroke-width="1.51"/><path d="M321,856L397,910L385,678Z" fill="#85a7d4" stroke="#85a7d4" stroke-width="1.51"/><path d="M329,494L155,682L332,668Z" fill="#9dc3e2" stroke="#9dc3e2" stroke-width="1.51"/><path d="M419,339L312,400L329,494Z" fill="#b8d6ea" stroke="#b8d6ea" stroke-width="1.51"/><path d="M353,294L419,339L513,238Z" fill="#c6dbef" stroke="#c6dbef" stroke-width="1.51"/><path d="M346,98L353,294L513,238Z" fill="#d0e1f3" stroke="#d0e1f3" stroke-width="1.51"/><path d="M1089,990L1218,1077L1164,934Z" fill="#306ca8" stroke="#306ca8" stroke-width="1.51"/><path d="M1164,934L1374,948L1206,815Z" fill="#2b73b3" stroke="#2b73b3" stroke-width="1.51"/><path d="M1369,661L1525,715L1437,548Z" fill="#3a84c0" stroke="#3a84c0" stroke-width="1.51"/><path d="M1105,1216L1218,1077L1089,990Z" fill="#2f6299" stroke="#2f6299" stroke-width="1.51"/><path d="M155,682L321,856L332,668Z" fill="#91b4da" stroke="#91b4da" stroke-width="1.51"/><path d="M332,668L321,856L385,678Z" fill="#8db2d9" stroke="#8db2d9" stroke-width="1.51"/><path d="M1218,1077L1374,948L1164,934Z" fill="#2868a7" stroke="#2868a7" stroke-width="1.51"/><path d="M1374,948L1418,891L1206,815Z" fill="#266fb2" stroke="#266fb2" stroke-width="1.51"/><path d="M1196,144L1113,-14L1015,68Z" fill="#a4c7e4" stroke="#a4c7e4" stroke-width="1.51"/><path d="M840,-141L791,86L957,85Z" fill="#bdd9ec" stroke="#bdd9ec" stroke-width="1.51"/><path d="M791,86L647,-28L607,136Z" fill="#c8e0ef" stroke="#c8e0ef" stroke-width="1.51"/><path d="M1252,-30L1113,-14L1196,144Z" fill="#a2c4e2" stroke="#a2c4e2" stroke-width="1.51"/><path d="M1325,239L1341,131L1196,144Z" fill="#90b5db" stroke="#90b5db" stroke-width="1.51"/><path d="M1504,273L1341,131L1325,239Z" fill="#87abd6" stroke="#87abd6" stroke-width="1.51"/><path d="M607,136L492,0L513,238Z" fill="#cfe1f2" stroke="#cfe1f2" stroke-width="1.51"/><path d="M714,-97L791,86L840,-141Z" fill="#c6dfee" stroke="#c6dfee" stroke-width="1.51"/><path d="M1437,548L1500,402L1369,530Z" fill="#5794c8" stroke="#5794c8" stroke-width="1.51"/><path d="M1661,385L1500,402L1726,589Z" fill="#598abf" stroke="#598abf" stroke-width="1.51"/><path d="M1418,891L1525,715L1369,661Z" fill="#2977b9" stroke="#2977b9" stroke-width="1.51"/><path d="M1470,1052L1418,891L1374,948Z" fill="#1960a5" stroke="#1960a5" stroke-width="1.51"/><path d="M845,1155L1105,1216L1089,990Z" fill="#3b699d" stroke="#3b699d" stroke-width="1.51"/><path d="M321,856L354,1017L397,910Z" fill="#7f98c9" stroke="#7f98c9" stroke-width="1.51"/><path d="M397,910L354,1017L558,1003Z" fill="#788fc0" stroke="#788fc0" stroke-width="1.51"/><path d="M746,1341L809,1347L845,1155Z" fill="#5274a3" stroke="#5274a3" stroke-width="1.51"/><path d="M647,-28L492,0L607,136Z" fill="#d3e5f3" stroke="#d3e5f3" stroke-width="1.51"/><path d="M647,-28L434,-165L492,0Z" fill="#dbe9f6" stroke="#dbe9f6" stroke-width="1.51"/><path d="M840,-141L957,85L1015,68Z" fill="#b6d5eb" stroke="#b6d5eb" stroke-width="1.51"/><path d="M1661,385L1504,273L1500,402Z" fill="#6f97c8" stroke="#6f97c8" stroke-width="1.51"/><path d="M1500,402L1504,273L1325,239Z" fill="#7aa2d0" stroke="#7aa2d0" stroke-width="1.51"/><path d="M353,294L180,394L312,400Z" fill="#c3dbed" stroke="#c3dbed" stroke-width="1.51"/><path d="M492,0L346,98L513,238Z" fill="#d6e5f4" stroke="#d6e5f4" stroke-width="1.51"/><path d="M312,400L180,394L329,494Z" fill="#b9d7ea" stroke="#b9d7ea" stroke-width="1.51"/><path d="M321,856L271,1011L354,1017Z" fill="#7f95c5" stroke="#7f95c5" stroke-width="1.51"/><path d="M194,189L180,394L353,294Z" fill="#cfe1f2" stroke="#cfe1f2" stroke-width="1.51"/><path d="M1113,-14L840,-141L1015,68Z" fill="#b2d2ea" stroke="#b2d2ea" stroke-width="1.51"/><path d="M1341,131L1252,-30L1196,144Z" fill="#9abbde" stroke="#9abbde" stroke-width="1.51"/><path d="M1298,-54L1252,-30L1341,131Z" fill="#9ebddf" stroke="#9ebddf" stroke-width="1.51"/><path d="M394,1139L518,1215L558,1003Z" fill="#6d7fab" stroke="#6d7fab" stroke-width="1.51"/><path d="M845,1155L995,1313L1105,1216Z" fill="#3d6a9f" stroke="#3d6a9f" stroke-width="1.51"/><path d="M142,480L155,682L329,494Z" fill="#a8cce7" stroke="#a8cce7" stroke-width="1.51"/><path d="M813,-206L840,-141L1043,-304Z" fill="#bad7ec" stroke="#bad7ec" stroke-width="1.51"/><path d="M354,1017L394,1139L558,1003Z" fill="#7285b1" stroke="#7285b1" stroke-width="1.51"/><path d="M271,1011L394,1139L354,1017Z" fill="#7787b3" stroke="#7787b3" stroke-width="1.51"/><path d="M154,909L271,1011L321,856Z" fill="#859ccb" stroke="#859ccb" stroke-width="1.51"/><path d="M346,98L194,189L353,294Z" fill="#d6e5f5" stroke="#d6e5f5" stroke-width="1.51"/><path d="M492,0L328,86L346,98Z" fill="#deeaf7" stroke="#deeaf7" stroke-width="1.51"/><path d="M180,394L142,480L329,494Z" fill="#b7d6ea" stroke="#b7d6ea" stroke-width="1.51"/><path d="M809,1347L995,1313L845,1155Z" fill="#4870a1" stroke="#4870a1" stroke-width="1.51"/><path d="M1418,891L1552,914L1525,715Z" fill="#1d69af" stroke="#1d69af" stroke-width="1.51"/><path d="M1726,589L1500,402L1437,548Z" fill="#4f8ac0" stroke="#4f8ac0" stroke-width="1.51"/><path d="M1470,1052L1552,914L1418,891Z" fill="#155da5" stroke="#155da5" stroke-width="1.51"/><path d="M1470,1052L1374,948L1399,1171Z" fill="#195494" stroke="#195494" stroke-width="1.51"/><path d="M1374,948L1218,1077L1399,1171Z" fill="#205896" stroke="#205896" stroke-width="1.51"/><path d="M840,-141L785,-167L714,-97Z" fill="#c6dfee" stroke="#c6dfee" stroke-width="1.51"/><path d="M714,-97L434,-165L647,-28Z" fill="#d5e7f3" stroke="#d5e7f3" stroke-width="1.51"/><path d="M492,0L244,-26L328,86Z" fill="#e3eef9" stroke="#e3eef9" stroke-width="1.51"/><path d="M813,-206L785,-167L840,-141Z" fill="#c2ddee" stroke="#c2ddee" stroke-width="1.51"/><path d="M518,1215L604,1292L713,1100Z" fill="#637ca7" stroke="#637ca7" stroke-width="1.51"/><path d="M412,1263L604,1292L518,1215Z" fill="#6c7faa" stroke="#6c7faa" stroke-width="1.51"/><path d="M1187,1286L1218,1077L1105,1216Z" fill="#2c6098" stroke="#2c6098" stroke-width="1.51"/><path d="M746,1341L845,1155L713,1100Z" fill="#5576a4" stroke="#5576a4" stroke-width="1.51"/><path d="M1252,-30L1116,-196L1113,-14Z" fill="#a7c8e4" stroke="#a7c8e4" stroke-width="1.51"/><path d="M1495,-62L1298,-54L1341,131Z" fill="#9cb7dc" stroke="#9cb7dc" stroke-width="1.51"/><path d="M604,1292L746,1341L713,1100Z" fill="#5d79a6" stroke="#5d79a6" stroke-width="1.51"/><path d="M995,1313L1187,1286L1105,1216Z" fill="#33649b" stroke="#33649b" stroke-width="1.51"/><path d="M1485,1371L1187,1286L995,1313Z" fill="#275e96" stroke="#275e96" stroke-width="1.51"/><path d="M328,86L194,189L346,98Z" fill="#ddeaf6" stroke="#ddeaf6" stroke-width="1.51"/><path d="M180,394L-20,454L142,480Z" fill="#c0dbed" stroke="#c0dbed" stroke-width="1.51"/><path d="M1341,1259L1399,1171L1218,1077Z" fill="#205794" stroke="#205794" stroke-width="1.51"/><path d="M26,786L154,909L155,682Z" fill="#95b2d9" stroke="#95b2d9" stroke-width="1.51"/><path d="M155,682L154,909L321,856Z" fill="#8eacd6" stroke="#8eacd6" stroke-width="1.51"/><path d="M271,1011L293,1229L394,1139Z" fill="#7685ae" stroke="#7685ae" stroke-width="1.51"/><path d="M1611,998L1552,914L1470,1052Z" fill="#11549b" stroke="#11549b" stroke-width="1.51"/><path d="M1611,998L1613,863L1552,914Z" fill="#1159a2" stroke="#1159a2" stroke-width="1.51"/><path d="M1552,914L1613,863L1525,715Z" fill="#1b66ac" stroke="#1b66ac" stroke-width="1.51"/><path d="M502,-303L434,-165L714,-97Z" fill="#d9e8f5" stroke="#d9e8f5" stroke-width="1.51"/><path d="M1116,-196L840,-141L1113,-14Z" fill="#b0d0e9" stroke="#b0d0e9" stroke-width="1.51"/><path d="M154,909L171,993L271,1011Z" fill="#8597c5" stroke="#8597c5" stroke-width="1.51"/><path d="M394,1139L412,1263L518,1215Z" fill="#7081ac" stroke="#7081ac" stroke-width="1.51"/><path d="M1726,589L1437,548L1525,715Z" fill="#3b7eba" stroke="#3b7eba" stroke-width="1.51"/><path d="M1504,273L1567,63L1341,131Z" fill="#89a9d4" stroke="#89a9d4" stroke-width="1.51"/><path d="M1399,1171L1515,1087L1470,1052Z" fill="#154e8e" stroke="#154e8e" stroke-width="1.51"/><path d="M1298,-54L1116,-196L1252,-30Z" fill="#a3c3e2" stroke="#a3c3e2" stroke-width="1.51"/><path d="M604,1292L231,1351L746,1341Z" fill="#6a7faa" stroke="#6a7faa" stroke-width="1.51"/><path d="M293,1229L412,1263L394,1139Z" fill="#7483ad" stroke="#7483ad" stroke-width="1.51"/><path d="M1187,1286L1341,1259L1218,1077Z" fill="#255c96" stroke="#255c96" stroke-width="1.51"/><path d="M1399,1171L1589,1297L1515,1087Z" fill="#134c8c" stroke="#134c8c" stroke-width="1.51"/><path d="M1613,863L1709,673L1525,715Z" fill="#246cb0" stroke="#246cb0" stroke-width="1.51"/><path d="M1811,747L1709,673L1613,863Z" fill="#2065a8" stroke="#2065a8" stroke-width="1.51"/><path d="M1515,1087L1611,998L1470,1052Z" fill="#124e91" stroke="#124e91" stroke-width="1.51"/><path d="M1762,902L1611,998L1831,951Z" fill="#094c95" stroke="#094c95" stroke-width="1.51"/><path d="M1709,673L1726,589L1525,715Z" fill="#3174b3" stroke="#3174b3" stroke-width="1.51"/><path d="M37,121L98,223L194,189Z" fill="#e1edf8" stroke="#e1edf8" stroke-width="1.51"/><path d="M194,189L98,223L180,394Z" fill="#d7e5f5" stroke="#d7e5f5" stroke-width="1.51"/><path d="M-35,643L26,786L155,682Z" fill="#9fc0e0" stroke="#9fc0e0" stroke-width="1.51"/><path d="M244,-26L194,189L328,86Z" fill="#e2edf8" stroke="#e2edf8" stroke-width="1.51"/><path d="M142,1079L293,1229L271,1011Z" fill="#7a87af" stroke="#7a87af" stroke-width="1.51"/><path d="M1644,89L1567,63L1504,273Z" fill="#88a1cf" stroke="#88a1cf" stroke-width="1.51"/><path d="M1298,-54L1307,-265L1116,-196Z" fill="#a3c2e1" stroke="#a3c2e1" stroke-width="1.51"/><path d="M1701,296L1504,273L1661,385Z" fill="#7294c6" stroke="#7294c6" stroke-width="1.51"/><path d="M502,-303L714,-97L785,-167Z" fill="#d0e4f1" stroke="#d0e4f1" stroke-width="1.51"/><path d="M-35,643L155,682L-45,610Z" fill="#a7c7e4" stroke="#a7c7e4" stroke-width="1.51"/><path d="M-15,965L142,1079L171,993Z" fill="#8794bf" stroke="#8794bf" stroke-width="1.51"/><path d="M171,993L142,1079L271,1011Z" fill="#818fba" stroke="#818fba" stroke-width="1.51"/><path d="M434,-165L244,-26L492,0Z" fill="#e3eef9" stroke="#e3eef9" stroke-width="1.51"/><path d="M1792,389L1701,296L1661,385Z" fill="#698bbd" stroke="#698bbd" stroke-width="1.51"/><path d="M-15,965L171,993L154,909Z" fill="#8b9cca" stroke="#8b9cca" stroke-width="1.51"/><path d="M1567,63L1495,-62L1341,131Z" fill="#95afd7" stroke="#95afd7" stroke-width="1.51"/><path d="M98,223L-20,454L180,394Z" fill="#cde2f1" stroke="#cde2f1" stroke-width="1.51"/><path d="M1307,-265L1043,-304L1116,-196Z" fill="#a8c8e4" stroke="#a8c8e4" stroke-width="1.51"/><path d="M1116,-196L1043,-304L840,-141Z" fill="#b2d1e9" stroke="#b2d1e9" stroke-width="1.51"/><path d="M813,-206L502,-303L785,-167Z" fill="#cde3f0" stroke="#cde3f0" stroke-width="1.51"/><path d="M26,786L-15,965L154,909Z" fill="#92a7d2" stroke="#92a7d2" stroke-width="1.51"/><path d="M-45,610L155,682L142,480Z" fill="#aacbe6" stroke="#aacbe6" stroke-width="1.51"/><path d="M1701,296L1644,89L1504,273Z" fill="#7f9aca" stroke="#7f9aca" stroke-width="1.51"/><path d="M1567,63L1604,-108L1495,-62Z" fill="#96aad4" stroke="#96aad4" stroke-width="1.51"/><path d="M-20,454L-45,610L142,480Z" fill="#b7d5eb" stroke="#b7d5eb" stroke-width="1.51"/><path d="M1701,296L1791,293L1644,89Z" fill="#7b92c3" stroke="#7b92c3" stroke-width="1.51"/><path d="M1726,589L1792,389L1661,385Z" fill="#5782b7" stroke="#5782b7" stroke-width="1.51"/><path d="M1842,481L1792,389L1726,589Z" fill="#4e7baf" stroke="#4e7baf" stroke-width="1.51"/><path d="M1709,673L1811,747L1726,589Z" fill="#2d6caa" stroke="#2d6caa" stroke-width="1.51"/><path d="M1611,998L1762,902L1613,863Z" fill="#0d559f" stroke="#0d559f" stroke-width="1.51"/><path d="M1711,1212L1611,998L1515,1087Z" fill="#0d4586" stroke="#0d4586" stroke-width="1.51"/><path d="M1762,902L1811,747L1613,863Z" fill="#145aa1" stroke="#145aa1" stroke-width="1.51"/><path d="M1517,-173L1298,-54L1495,-62Z" fill="#9ab3da" stroke="#9ab3da" stroke-width="1.51"/><path d="M1517,-173L1307,-265L1298,-54Z" fill="#9db8dd" stroke="#9db8dd" stroke-width="1.51"/><path d="M98,223L-155,237L-20,454Z" fill="#dae9f5" stroke="#dae9f5" stroke-width="1.51"/><path d="M92,22L37,121L194,189Z" fill="#e8f1fa" stroke="#e8f1fa" stroke-width="1.51"/><path d="M92,22L194,189L244,-26Z" fill="#e9f1fa" stroke="#e9f1fa" stroke-width="1.51"/><path d="M37,121L13,156L98,223Z" fill="#e5eff9" stroke="#e5eff9" stroke-width="1.51"/><path d="M-260,640L-35,643L-45,610Z" fill="#aacae5" stroke="#aacae5" stroke-width="1.51"/><path d="M434,-165L295,-191L244,-26Z" fill="#e7f0fa" stroke="#e7f0fa" stroke-width="1.51"/><path d="M1043,-304L502,-303L813,-206Z" fill="#c5deee" stroke="#c5deee" stroke-width="1.51"/><path d="M-233,94L-155,237L13,156Z" fill="#e8f1fa" stroke="#e8f1fa" stroke-width="1.51"/><path d="M65,-73L92,22L244,-26Z" fill="#f0f6fd" stroke="#f0f6fd" stroke-width="1.51"/><path d="M1792,389L1791,293L1701,296Z" fill="#6c89b9" stroke="#6c89b9" stroke-width="1.51"/><path d="M1980,406L1791,293L1792,389Z" fill="#6380ad" stroke="#6380ad" stroke-width="1.51"/><path d="M142,1079L231,1351L293,1229Z" fill="#7b87b0" stroke="#7b87b0" stroke-width="1.51"/><path d="M-133,910L-15,965L26,786Z" fill="#95a9d3" stroke="#95a9d3" stroke-width="1.51"/><path d="M-133,910L26,786L-35,643Z" fill="#9cb7dc" stroke="#9cb7dc" stroke-width="1.51"/><path d="M502,-303L295,-191L434,-165Z" fill="#e2edf8" stroke="#e2edf8" stroke-width="1.51"/><path d="M1971,575L1842,481L1726,589Z" fill="#4070a7" stroke="#4070a7" stroke-width="1.51"/><path d="M1604,-108L1517,-173L1495,-62Z" fill="#96acd5" stroke="#96acd5" stroke-width="1.51"/><path d="M1604,-108L1567,63L1644,89Z" fill="#93a6d1" stroke="#93a6d1" stroke-width="1.51"/><path d="M1341,1259L1485,1371L1399,1171Z" fill="#195190" stroke="#195190" stroke-width="1.51"/><path d="M1187,1286L1485,1371L1341,1259Z" fill="#1f5693" stroke="#1f5693" stroke-width="1.51"/><path d="M809,1347L1485,1371L995,1313Z" fill="#33649b" stroke="#33649b" stroke-width="1.51"/><path d="M42,1367L231,1351L142,1079Z" fill="#808ab1" stroke="#808ab1" stroke-width="1.51"/><path d="M293,1229L231,1351L412,1263Z" fill="#7785ae" stroke="#7785ae" stroke-width="1.51"/><path d="M412,1263L231,1351L604,1292Z" fill="#7182ac" stroke="#7182ac" stroke-width="1.51"/><path d="M746,1341L231,1351L809,1347Z" fill="#657ca8" stroke="#657ca8" stroke-width="1.51"/><path d="M809,1347L42,1367L1485,1371Z" fill="#5475a3" stroke="#5475a3" stroke-width="1.51"/><path d="M1765,22L1604,-108L1644,89Z" fill="#92a2ce" stroke="#92a2ce" stroke-width="1.51"/><path d="M1485,1371L1589,1297L1399,1171Z" fill="#134c8d" stroke="#134c8d" stroke-width="1.51"/><path d="M-15,965L0,1112L142,1079Z" fill="#8791b8" stroke="#8791b8" stroke-width="1.51"/><path d="M1811,747L1971,575L1726,589Z" fill="#3169a3" stroke="#3169a3" stroke-width="1.51"/><path d="M1762,902L1831,951L1811,747Z" fill="#125196" stroke="#125196" stroke-width="1.51"/><path d="M1759,1145L1831,951L1611,998Z" fill="#094286" stroke="#094286" stroke-width="1.51"/><path d="M92,22L-144,-62L37,121Z" fill="#f5f9fe" stroke="#f5f9fe" stroke-width="1.51"/><path d="M295,-191L65,-73L244,-26Z" fill="#edf4fc" stroke="#edf4fc" stroke-width="1.51"/><path d="M27,-118L65,-73L91,-271Z" fill="#f4f9fe" stroke="#f4f9fe" stroke-width="1.51"/><path d="M1589,1297L1711,1212L1515,1087Z" fill="#0d4587" stroke="#0d4587" stroke-width="1.51"/><path d="M1824,1241L1711,1212L1589,1297Z" fill="#093e80" stroke="#093e80" stroke-width="1.51"/><path d="M1711,1212L1759,1145L1611,998Z" fill="#093f82" stroke="#093f82" stroke-width="1.51"/><path d="M2022,211L1765,22L1791,293Z" fill="#7a89b5" stroke="#7a89b5" stroke-width="1.51"/><path d="M1791,293L1765,22L1644,89Z" fill="#8295c4" stroke="#8295c4" stroke-width="1.51"/><path d="M-260,640L-133,910L-35,643Z" fill="#a0bedf" stroke="#a0bedf" stroke-width="1.51"/><path d="M-15,965L-232,1071L0,1112Z" fill="#8992b9" stroke="#8992b9" stroke-width="1.51"/><path d="M-212,468L-45,610L-20,454Z" fill="#bad7ec" stroke="#bad7ec" stroke-width="1.51"/><path d="M1774,-117L1649,-167L1604,-108Z" fill="#92a2cd" stroke="#92a2cd" stroke-width="1.51"/><path d="M1604,-108L1649,-167L1517,-173Z" fill="#95a8d2" stroke="#95a8d2" stroke-width="1.51"/><path d="M1517,-173L1844,-277L1307,-265Z" fill="#96aad4" stroke="#96aad4" stroke-width="1.51"/><path d="M13,156L-155,237L98,223Z" fill="#e5eff9" stroke="#e5eff9" stroke-width="1.51"/><path d="M-144,-62L13,156L37,121Z" fill="#f1f6fd" stroke="#f1f6fd" stroke-width="1.51"/><path d="M-155,237L-212,468L-20,454Z" fill="#cee3f1" stroke="#cee3f1" stroke-width="1.51"/><path d="M1842,481L1980,406L1792,389Z" fill="#587aa9" stroke="#587aa9" stroke-width="1.51"/><path d="M1990,763L1971,575L1811,747Z" fill="#265d96" stroke="#265d96" stroke-width="1.51"/><path d="M1990,763L1811,747L1974,914Z" fill="#164f8f" stroke="#164f8f" stroke-width="1.51"/><path d="M65,-73L-144,-62L92,22Z" fill="#f7fbff" stroke="#f7fbff" stroke-width="1.51"/><path d="M91,-271L65,-73L295,-191Z" fill="#eff6fd" stroke="#eff6fd" stroke-width="1.51"/><path d="M1971,575L1980,406L1842,481Z" fill="#4a71a1" stroke="#4a71a1" stroke-width="1.51"/><path d="M1974,914L1811,747L1831,951Z" fill="#114c8f" stroke="#114c8f" stroke-width="1.51"/><path d="M1971,575L2105,489L1980,406Z" fill="#4a70a1" stroke="#4a70a1" stroke-width="1.51"/><path d="M-262,336L-260,640L-212,468Z" fill="#bedaed" stroke="#bedaed" stroke-width="1.51"/><path d="M-212,468L-260,640L-45,610Z" fill="#b1d0e9" stroke="#b1d0e9" stroke-width="1.51"/><path d="M-75,1279L0,1112L-139,1210Z" fill="#878eb3" stroke="#878eb3" stroke-width="1.51"/><path d="M-75,1279L42,1367L0,1112Z" fill="#878eb3" stroke="#878eb3" stroke-width="1.51"/><path d="M0,1112L42,1367L142,1079Z" fill="#848cb2" stroke="#848cb2" stroke-width="1.51"/><path d="M231,1351L42,1367L809,1347Z" fill="#7483ad" stroke="#7483ad" stroke-width="1.51"/><path d="M1765,22L1774,-117L1604,-108Z" fill="#909eca" stroke="#909eca" stroke-width="1.51"/><path d="M1882,-105L1774,-117L1765,22Z" fill="#8c97c0" stroke="#8c97c0" stroke-width="1.51"/><path d="M2006,1041L1831,951L1759,1145Z" fill="#083776" stroke="#083776" stroke-width="1.51"/><path d="M2006,1041L1974,914L1831,951Z" fill="#093d7f" stroke="#093d7f" stroke-width="1.51"/><path d="M1711,1212L1824,1241L1759,1145Z" fill="#093a7a" stroke="#093a7a" stroke-width="1.51"/><path d="M2032,1326L1824,1241L1589,1297Z" fill="#093775" stroke="#093775" stroke-width="1.51"/><path d="M-233,94L-262,336L-155,237Z" fill="#e3eef9" stroke="#e3eef9" stroke-width="1.51"/><path d="M502,-303L91,-271L295,-191Z" fill="#e8f1fa" stroke="#e8f1fa" stroke-width="1.51"/><path d="M-155,237L-262,336L-212,468Z" fill="#d3e6f3" stroke="#d3e6f3" stroke-width="1.51"/><path d="M-144,-62L65,-73L27,-118Z" fill="#f7fbff" stroke="#f7fbff" stroke-width="1.51"/><path d="M-139,1210L0,1112L-232,1071Z" fill="#878eb3" stroke="#878eb3" stroke-width="1.51"/><path d="M2063,908L2041,754L1990,763Z" fill="#164f8f" stroke="#164f8f" stroke-width="1.51"/><path d="M1990,763L2041,754L1971,575Z" fill="#265c96" stroke="#265c96" stroke-width="1.51"/><path d="M-232,1071L-15,965L-133,910Z" fill="#8f9cc6" stroke="#8f9cc6" stroke-width="1.51"/><path d="M-84,-233L-144,-62L27,-118Z" fill="#f7fbff" stroke="#f7fbff" stroke-width="1.51"/><path d="M-260,640L-232,1071L-133,910Z" fill="#96abd4" stroke="#96abd4" stroke-width="1.51"/><path d="M1980,406L2022,211L1791,293Z" fill="#697eaa" stroke="#697eaa" stroke-width="1.51"/><path d="M2119,425L2022,211L1980,406Z" fill="#637ba7" stroke="#637ba7" stroke-width="1.51"/><path d="M-144,-62L-233,94L13,156Z" fill="#f1f7fd" stroke="#f1f7fd" stroke-width="1.51"/><path d="M1932,1219L2006,1041L1759,1145Z" fill="#08316d" stroke="#08316d" stroke-width="1.51"/><path d="M1974,914L2063,908L1990,763Z" fill="#124a8a" stroke="#124a8a" stroke-width="1.51"/><path d="M1774,-117L1844,-277L1649,-167Z" fill="#8e9bc5" stroke="#8e9bc5" stroke-width="1.51"/><path d="M1649,-167L1844,-277L1517,-173Z" fill="#92a2ce" stroke="#92a2ce" stroke-width="1.51"/><path d="M2032,75L1882,-105L1765,22Z" fill="#8890b6" stroke="#8890b6" stroke-width="1.51"/><path d="M2194,625L2105,489L1971,575Z" fill="#3c699e" stroke="#3c699e" stroke-width="1.51"/><path d="M2043,1032L2063,908L1974,914Z" fill="#093f82" stroke="#093f82" stroke-width="1.51"/><path d="M2006,1041L2043,1032L1974,914Z" fill="#093a7a" stroke="#093a7a" stroke-width="1.51"/><path d="M1824,1241L1932,1219L1759,1145Z" fill="#093573" stroke="#093573" stroke-width="1.51"/><path d="M2032,1326L1932,1219L1824,1241Z" fill="#08306b" stroke="#08306b" stroke-width="1.51"/><path d="M2194,625L1971,575L2041,754Z" fill="#2d6199" stroke="#2d6199" stroke-width="1.51"/><path d="M2134,1191L2043,1032L2006,1041Z" fill="#08306b" stroke="#08306b" stroke-width="1.51"/><path d="M2105,489L2119,425L1980,406Z" fill="#5475a3" stroke="#5475a3" stroke-width="1.51"/><path d="M2022,211L2032,75L1765,22Z" fill="#7d89b0" stroke="#7d89b0" stroke-width="1.51"/><path d="M2260,485L2119,425L2105,489Z" fill="#4f72a2" stroke="#4f72a2" stroke-width="1.51"/><path d="M-144,-62L-213,-200L-233,94Z" fill="#f7fbff" stroke="#f7fbff" stroke-width="1.51"/><path d="M91,-271L-84,-233L27,-118Z" fill="#f7faff" stroke="#f7faff" stroke-width="1.51"/><path d="M2131,126L2032,75L2022,211Z" fill="#7a87af" stroke="#7a87af" stroke-width="1.51"/><path d="M-232,1071L-197,1295L-139,1210Z" fill="#878eb3" stroke="#878eb3" stroke-width="1.51"/><path d="M-139,1210L-197,1295L-75,1279Z" fill="#878eb3" stroke="#878eb3" stroke-width="1.51"/><path d="M-75,1279L-197,1295L42,1367Z" fill="#878eb3" stroke="#878eb3" stroke-width="1.51"/><path d="M2008,-225L1844,-277L1882,-105Z" fill="#878fb4" stroke="#878fb4" stroke-width="1.51"/><path d="M1882,-105L1844,-277L1774,-117Z" fill="#8b95bc" stroke="#8b95bc" stroke-width="1.51"/><path d="M1307,-265L1844,-277L1043,-304Z" fill="#9bb6dc" stroke="#9bb6dc" stroke-width="1.51"/><path d="M2215,863L2194,625L2041,754Z" fill="#1f5793" stroke="#1f5793" stroke-width="1.51"/><path d="M2119,425L2178,298L2022,211Z" fill="#687ea9" stroke="#687ea9" stroke-width="1.51"/><path d="M2215,863L2041,754L2063,908Z" fill="#134c8c" stroke="#134c8c" stroke-width="1.51"/><path d="M2260,485L2178,298L2119,425Z" fill="#5b78a5" stroke="#5b78a5" stroke-width="1.51"/><path d="M2070,-210L2008,-225L1882,-105Z" fill="#878eb3" stroke="#878eb3" stroke-width="1.51"/><path d="M2189,182L2131,126L2022,211Z" fill="#7785ae" stroke="#7785ae" stroke-width="1.51"/><path d="M-84,-233L-213,-200L-144,-62Z" fill="#f7fbff" stroke="#f7fbff" stroke-width="1.51"/><path d="M-233,94L-213,-200L-262,336Z" fill="#f0f6fc" stroke="#f0f6fc" stroke-width="1.51"/><path d="M2331,333L2189,182L2178,298Z" fill="#6e80ab" stroke="#6e80ab" stroke-width="1.51"/><path d="M2043,1032L2215,863L2063,908Z" fill="#0a4184" stroke="#0a4184" stroke-width="1.51"/><path d="M2267,1097L2215,863L2043,1032Z" fill="#093a7a" stroke="#093a7a" stroke-width="1.51"/><path d="M2178,298L2189,182L2022,211Z" fill="#7282ac" stroke="#7282ac" stroke-width="1.51"/><path d="M2070,-210L1882,-105L2032,75Z" fill="#878eb3" stroke="#878eb3" stroke-width="1.51"/><path d="M2260,485L2105,489L2194,625Z" fill="#416ca0" stroke="#416ca0" stroke-width="1.51"/><path d="M1932,1219L2134,1191L2006,1041Z" fill="#08306b" stroke="#08306b" stroke-width="1.51"/><path d="M1485,1371L2032,1326L1589,1297Z" fill="#093f81" stroke="#093f81" stroke-width="1.51"/><path d="M2332,975L2260,485L2194,625Z" fill="#265d96" stroke="#265d96" stroke-width="1.51"/><path d="M2070,-210L2032,75L2167,-120Z" fill="#878eb3" stroke="#878eb3" stroke-width="1.51"/><path d="M2032,1326L2134,1191L1932,1219Z" fill="#08306b" stroke="#08306b" stroke-width="1.51"/><path d="M2008,-225L2070,-210L1844,-277Z" fill="#878eb3" stroke="#878eb3" stroke-width="1.51"/><path d="M2167,-120L2032,75L2131,126Z" fill="#848db2" stroke="#848db2" stroke-width="1.51"/><path d="M2287,142L2131,126L2189,182Z" fill="#7986af" stroke="#7986af" stroke-width="1.51"/><path d="M2261,-106L2167,-120L2131,126Z" fill="#878eb3" stroke="#878eb3" stroke-width="1.51"/><path d="M2260,485L2331,333L2178,298Z" fill="#5f7aa6" stroke="#5f7aa6" stroke-width="1.51"/><path d="M2332,975L2331,333L2260,485Z" fill="#36669c" stroke="#36669c" stroke-width="1.51"/><path d="M2331,333L2287,142L2189,182Z" fill="#7383ad" stroke="#7383ad" stroke-width="1.51"/><path d="M2215,863L2332,975L2194,625Z" fill="#154e8e" stroke="#154e8e" stroke-width="1.51"/><path d="M2134,1191L2267,1097L2043,1032Z" fill="#08306b" stroke="#08306b" stroke-width="1.51"/><path d="M2293,1334L2267,1097L2134,1191Z" fill="#08306b" stroke="#08306b" stroke-width="1.51"/><path d="M2267,1097L2332,975L2215,863Z" fill="#093c7d" stroke="#093c7d" stroke-width="1.51"/><path d="M2032,1326L2176,1383L2134,1191Z" fill="#08306b" stroke="#08306b" stroke-width="1.51"/><path d="M2267,1097L2293,1334L2332,975Z" fill="#08306b" stroke="#08306b" stroke-width="1.51"/><path d="M1485,1371L2176,1383L2032,1326Z" fill="#08316d" stroke="#08316d" stroke-width="1.51"/><path d="M42,1367L2176,1383L1485,1371Z" fill="#265d96" stroke="#265d96" stroke-width="1.51"/><path d="M2167,-120L2221,-155L2070,-210Z" fill="#878eb3" stroke="#878eb3" stroke-width="1.51"/><path d="M2261,-106L2221,-155L2167,-120Z" fill="#878eb3" stroke="#878eb3" stroke-width="1.51"/><path d="M2261,-106L2131,126L2287,142Z" fill="#828bb2" stroke="#828bb2" stroke-width="1.51"/><path d="M2331,333L2261,-106L2287,142Z" fill="#7b87b0" stroke="#7b87b0" stroke-width="1.51"/><path d="M2176,1383L2293,1334L2134,1191Z" fill="#08306b" stroke="#08306b" stroke-width="1.51"/></svg>